<?xml version="1.0" encoding="UTF-8"?>
<!DOCTYPE svg PUBLIC "-//W3C//DTD SVG 1.1//EN" "http://www.w3.org/Graphics/SVG/1.1/DTD/svg11.dtd">
<!-- Creator: CorelDRAW -->
<svg xmlns="http://www.w3.org/2000/svg" xml:space="preserve" width="2048px" height="2048px" style="shape-rendering:geometricPrecision; text-rendering:geometricPrecision; image-rendering:optimizeQuality; fill-rule:evenodd; clip-rule:evenodd"
viewBox="0 0 2048 2048"
 xmlns:xlink="http://www.w3.org/1999/xlink">
 <defs>
  <style type="text/css">
   <![CDATA[
    .fil2 {fill:none}
    .fil1 {fill:#424242}
    .fil0 {fill:#424242;fill-rule:nonzero}
   ]]>
  </style>
 </defs>
 <g id="Layer_x0020_1">
  <metadata id="CorelCorpID_0Corel-Layer"/>
  <g id="_244127416">
   <path id="_244127896" class="fil0" d="M255.998 695.305l0 -204.814c0,-17.6728 14.328,-32.0008 32.0008,-32.0008l1472 0c17.6728,0 32.0008,14.328 32.0008,32.0008l0 204.814 -1536 0zm1026.79 -150.408c-17.6728,0 -32.0008,14.328 -32.0008,32.0008 0,17.6728 14.328,32.0008 32.0008,32.0008l16.5225 0c17.6728,0 32.0008,-14.328 32.0008,-32.0008 0,-17.6728 -14.328,-32.0008 -32.0008,-32.0008l-16.5225 0zm165.716 0c-17.6728,0 -32.0008,14.328 -32.0008,32.0008 0,17.6728 14.328,32.0008 32.0008,32.0008l16.5225 0c17.6728,0 32.0008,-14.328 32.0008,-32.0008 0,-17.6728 -14.328,-32.0008 -32.0008,-32.0008l-16.5225 0zm165.717 0c-17.6728,0 -32.0008,14.328 -32.0008,32.0008 0,17.6728 14.328,32.0008 32.0008,32.0008l16.5225 0c17.6728,0 32.0008,-14.328 32.0008,-32.0008 0,-17.6728 -14.328,-32.0008 -32.0008,-32.0008l-16.5225 0z"/>
   <path id="_244127632" class="fil1" d="M1792 1557.51l0 -830.203 -1536 0 0 830.203c0,17.6728 14.328,32.0008 32.0008,32.0008l1472 0c17.6728,0 32.0008,-14.328 32.0008,-32.0008zm-1103.71 -98.0658c1.20354,0.100394 2.2441,0.18189 3.04488,0.248032 40.3831,3.32481 79.9536,5.42835 120.522,2.63977 26.804,-1.84252 67.493,-6.83504 90.0402,-22.4067l6.76182 -4.6689c27.554,-20.8701 42.5044,-49.9926 35.0469,-85.5355 -8.94331,-42.6142 -49.9181,-79.1375 -94.0749,-79.5757 -33.1618,-0.328347 -84.9355,36.9992 -89.1284,70.9926 -2.16614,17.5689 -8.69528,38.1768 -15.7134,54.3508 -6.52796,15.0484 -15.7536,31.4433 -28.3795,42.1855 -9.08032,7.7256 -18.4996,14.7945 -28.1197,21.7701zm196.257 -220.937c-1.33701,3.66378 0.173622,7.84725 3.7063,9.76536 0.746457,0.403937 1.95591,0.729922 2.76851,0.973229 17.0209,5.09174 31.8815,15.8173 44.3256,28.2614 12.8197,12.8197 23.0114,28.4788 28.7599,45.7205l0.431103 1.29095c1.79055,3.41221 5.83347,5.1189 9.60828,3.85985 0.827953,-0.276378 1.80236,-0.882284 2.53937,-1.33701 27.6036,-17.0575 54.9792,-41.2181 78.7536,-63.2315 32.2618,-29.8736 63.1099,-61.6819 92.7568,-94.1398 31.611,-34.6099 62.3174,-70.4753 91.102,-107.474 12,-15.4264 23.7343,-31.1386 34.8,-47.25 8.2689,-12.0366 16.4847,-24.6118 23.3374,-37.5177 16.5366,-31.1433 33.7311,-62.4071 49.1587,-94.0985 2.31496,-4.75276 9.49961,-19.6406 13.1126,-30.1394 -10.4917,3.60118 -25.363,10.7634 -30.1134,13.0736 -31.7162,15.4134 -63.0083,32.6126 -94.1658,49.1563 -12.8303,6.8126 -25.3465,14.9067 -37.3666,23.0504 -16.1858,10.9677 -31.9949,22.5709 -47.5276,34.4398 -37.363,28.5496 -73.6288,59.0103 -108.545,90.4985 -33.065,29.8181 -65.5134,61.0441 -95.543,93.932 -21.4158,23.4532 -46.128,52.1162 -61.317,80.0942l-0.582284 1.07244z"/>
  </g>
 </g>
 <rect class="fil2" width="2048" height="2048"/>
</svg>
